<svg xmlns="http://www.w3.org/2000/svg" viewBox="0 0 850 320" width="850" height="320">
<defs>
    <circle id="logo-circle" cx="160.0" cy="160.0" r="114.5" fill="#FFFFFF"/>
</defs>
<!-- Fundal circular alb pentru logo -->
<use href="#logo-circle"/>
<!-- Logo-ul cu câinele și pisica (mutat 15 cm dreapta, 1 cm sus) -->
<image href="eu-adopt-logo-original.jpeg" x="612.5" y="7.7" width="229" height="229" preserveAspectRatio="xMidYMid meet"/>
<!-- Stelele alternând galben-albastru -->
<g><path d="M264.0,170.0L261.6,163.2L254.5,163.1L260.2,158.8L258.1,151.9L264.0,156.0L269.9,151.9L267.8,158.8L273.5,163.1L266.4,163.2Z" fill="#FFD700"/><path d="M245.1,220.7L246.4,213.6L240.3,209.9L247.4,209.0L249.0,202.1L252.1,208.5L259.2,207.9L254.0,212.8L256.8,219.4L250.5,216.0Z" fill="#003399"/><path d="M203.3,255.1L208.0,249.6L204.6,243.4L211.2,246.2L216.1,240.9L215.5,248.1L221.9,251.1L215.0,252.7L214.1,259.8L210.4,253.7Z" fill="#FFD700"/><path d="M150.0,264.0L156.8,261.6L156.9,254.5L161.2,260.2L168.1,258.1L164.0,264.0L168.1,269.9L161.2,267.8L156.9,273.5L156.8,266.4Z" fill="#003399"/><path d="M99.3,245.1L106.4,246.4L110.1,240.3L111.0,247.4L117.9,249.0L111.5,252.1L112.1,259.2L107.2,254.0L100.6,256.8L104.0,250.5Z" fill="#FFD700"/><path d="M64.9,203.3L70.4,208.0L76.6,204.6L73.8,211.2L79.1,216.1L71.9,215.5L68.9,221.9L67.3,215.0L60.2,214.1L66.3,210.4Z" fill="#003399"/><path d="M56.0,150.0L58.4,156.8L65.5,156.9L59.8,161.2L61.9,168.1L56.0,164.0L50.1,168.1L52.2,161.2L46.5,156.9L53.6,156.8Z" fill="#FFD700"/><path d="M74.9,99.3L73.6,106.4L79.7,110.1L72.6,111.0L71.0,117.9L67.9,111.5L60.8,112.1L66.0,107.2L63.2,100.6L69.5,104.0Z" fill="#003399"/><path d="M116.7,64.9L112.0,70.4L115.4,76.6L108.8,73.8L103.9,79.1L104.5,71.9L98.1,68.9L105.0,67.3L105.9,60.2L109.6,66.3Z" fill="#FFD700"/><path d="M170.0,56.0L163.2,58.4L163.1,65.5L158.8,59.8L151.9,61.9L156.0,56.0L151.9,50.1L158.8,52.2L163.1,46.5L163.2,53.6Z" fill="#003399"/><path d="M220.7,74.9L213.6,73.6L209.9,79.7L209.0,72.6L202.1,71.0L208.5,67.9L207.9,60.8L212.8,66.0L219.4,63.2L216.0,69.5Z" fill="#FFD700"/><path d="M255.1,116.7L249.6,112.0L243.4,115.4L246.2,108.8L240.9,103.9L248.1,104.5L251.1,98.1L252.7,105.0L259.8,105.9L253.7,109.6Z" fill="#003399"/></g>
</svg>